<?xml version="1.0" encoding="UTF-8"?>
<svg id="Layer_1" data-name="Layer 1" xmlns="http://www.w3.org/2000/svg" version="1.1" xmlns:xlink="http://www.w3.org/1999/xlink" viewBox="0 0 500.3 462.8">
  <defs>
    <style>
      .cls-1 {
        stroke-width: 6px;
      }

      .cls-1, .cls-2, .cls-3 {
        stroke-miterlimit: 10;
      }

      .cls-1, .cls-3 {
        fill: none;
        stroke: #004d77;
      }

      .cls-4 {
        fill: #eac5c5;
      }

      .cls-4, .cls-5, .cls-6, .cls-7, .cls-8, .cls-9, .cls-10, .cls-11, .cls-12, .cls-13, .cls-14, .cls-15, .cls-16 {
        stroke-width: 0px;
      }

      .cls-5 {
        fill: #56cbf4;
      }

      .cls-6 {
        fill: #1d6d99;
      }

      .cls-7 {
        fill: #0071bc;
      }

      .cls-8 {
        fill: #ffcfe0;
      }

      .cls-2 {
        fill: #93278f;
        stroke: #c1272d;
      }

      .cls-3 {
        stroke-width: 4px;
      }

      .cls-9 {
        fill: #f7931e;
      }

      .cls-17 {
        stroke-miterlimit: 10;
        stroke-width: 1px;
      }

      .cls-17, .cls-18 {
        fill: #ffce8d;
        stroke: #fff;
      }

      .cls-18 {
        stroke-miterlimit: 10;
        stroke-width: 1px;
      }

      .cls-10 {
        fill: #dd8383;
      }

      .cls-19 {
        fill: url(#linear-gradient);
        stroke: #d0e4ea;
        stroke-miterlimit: 10;
        stroke-width: .5px;
      }

      .cls-11, .cls-12 {
        fill: #9ff1ff;
      }

      .cls-12 {
        isolation: isolate;
        opacity: .4;
      }

      .cls-13 {
        fill: #ff6e9b;
      }

      .cls-14 {
        fill: #5e4b75;
      }

      .cls-15 {
        fill: #29abe2;
      }

      .cls-16 {
        fill: #004d77;
      }
    </style>
    <linearGradient id="linear-gradient" x1="875.2" y1="610.5" x2="999" y2="610.5" gradientTransform="translate(-868.3 -281.6) rotate(90) scale(.6 -1.8)" gradientUnits="userSpaceOnUse">
      <stop offset="0" stop-color="#72c6ff"/>
      <stop offset=".3" stop-color="#dbcbff"/>
      <stop offset=".4" stop-color="#8bcdff"/>
      <stop offset=".8" stop-color="#ffefff"/>
      <stop offset="1" stop-color="#88e5ff"/>
    </linearGradient>
  </defs>
  <g id="Layer_14" data-name="Layer 14">
    <g id="Layer_12" data-name="Layer 12">
      <ellipse class="cls-11" cx="160.9" cy="121.7" rx="70.9" ry="64.3"/>
    </g>
    <path class="cls-9" d="M137.3,93.6c-1.4,5-3.1,10.1-5.7,14.6-.8,1.4-1.7,2.7-2.7,3.9s-4.2,5.3-5.9,5.4l2.9,2.2c-.9-2.2,3.6-6.4,4.8-8.1,2.1-2.9,3.8-6,4.9-9.4.8-2.5,1.4-5.1,1.6-7.7.1-1.4-.1-3,.1-4.4,0-1.1.1-.8.1.9,0,1.1-.1,2.2-.3,3.3-.5,3.8,5.5,3.8,6,0s.8-10.4-3.9-11.7c-4.4-1.3-7.7,3.3-8,7-.5,7-1.1,12.3-5.3,18.3-2.5,3.6-7.8,8.4-5.9,13.3.5,1.2,1.5,2.2,2.9,2.2,5.4-.2,10.4-6.9,13-11.1,3.3-5.2,5.4-11.3,7-17.2,1-3.7-4.8-5.3-5.8-1.6h0Z"/>
    <circle class="cls-2" cx="188.4" cy="121.7" r="13.7"/>
    <circle class="cls-13" cx="188.5" cy="121.7" r="11.1"/>
    <g id="Layer_9" data-name="Layer 9">
      <path class="cls-10" d="M125.8,119.2c3.3-4.6,6.7-9.2,9-14.4,1.1-2.5,2-5.1,2.4-7.9s.3-5.8,1.6-8.2l-2.7-.4c1.4,5.5-1.4,11.5-4.1,16.1-3,5.1-6.5,10-10.1,14.8-1.1,1.5,1.1,2.8,2.4,1.8,5.5-4.4,10.4-9.8,13.2-16.4,1.5-3.6,2.4-7.4,2.6-11.3.1-2.3,0-7.8-3.9-6.7-1.6.4-2.2,2.1-2.4,3.6-.2,2.2,0,4.5,0,6.7,0,1.9,3,1.9,3,0,0-2,0-4.1,0-6.1,0-.3,0-.5,0-.8,0,0,.3-.8,0-.6-.2.2,0,.1,0,.5,0,.3.1.5.1.8.3,3.9-.6,8-2,11.6-2.5,6.6-7.5,12.1-13,16.5l2.4,1.8c3.8-5.1,7.6-10.4,10.7-15.9,2.8-5.1,5.3-11.4,3.8-17.2-.3-1.2-2.1-1.5-2.7-.4-1.4,2.5-1.5,5.3-1.8,8.1s-1.1,5.4-2.2,8c-2.2,5.2-5.6,9.9-9,14.4-1.1,1.6,1.5,3.1,2.6,1.5h0Z"/>
      <path class="cls-8" d="M201.4,114.8c0-.2,0-.3.1-.5,0,0,0-.1,0-.2,0,0,0,0,0,0,0,0,0,0,0,0,0,0,0,0,0,0,0,0,0,0,0,0,0,0,.1,0,0,0,0,0,0,0,.1,0s0,0,0,0h0c0,0,0,0,0,0,0,0,0,0,0,0,0,0,0,0,0,0,0,0,.1.2.2.2.2.2.5.3.7.2.2,0,.4-.2.6-.4.3-.3.6-.6.6-1,0-.2,0-.4-.3-.5-.2,0-.4,0-.5.3,0,0,0,.1,0,.2h0c0,.1,0,.2-.1.3-.1.1-.3.3-.4.4,0,0,0,0-.1,0-.1,0,0,0,0,0h0s0,0,0,0t0,0s0,0,0,0c-.1-.2-.3-.3-.5-.4-.4-.1-.8,0-1.1.3-.3.4-.4.8-.4,1.2,0,.2.2.4.4.4s.4-.2.4-.4h0Z"/>
      <path class="cls-8" d="M199.7,111.7c0-.3-.1-.5-.1-.8,0,0,0-.2,0-.3,0,0,0-.1,0,0,0,0,.2,0,.3,0,.1,0,.2,0,.3,0,.2,0,.4-.2.5-.3.7-.5,1.1-1.4.8-2.2-.1-.5-.9-.3-.7.2.2.6-.2,1.4-.9,1.6-.2,0-.4,0-.6.1-.2,0-.4.3-.5.5-.1.5,0,1.1.1,1.5s.8.3.7-.2h0Z"/>
      <path class="cls-8" d="M196.2,108.7c-.2-.3-.3-.6,0-.9.1-.2.3-.3.5-.4.2-.2.3-.4.4-.6.4-.9-.5-2-1.5-1.9-.2,0-.4.2-.4.4s.2.4.4.4c.3,0,.6.1.8.4.1.4,0,.6-.3.9-.4.3-.6.6-.7,1,0,.4,0,.9.3,1.2.1.2.3.2.5.1.2,0,.3-.4.1-.5h0Z"/>
      <path class="cls-8" d="M191.9,107.8c.1-.9,0-1.9-.5-2.7-.2-.3-.6-.6-1-.8-.2,0-.4-.2-.6-.2-.1,0-.2,0-.3,0h-.1c0,0,0,0,0,0v.2c0,.1.1.1.1,0h0c0-.2.1-.3.1-.4,0-.2.2-.3.3-.5.2-.4-.4-.8-.6-.4-.2.3-.3.6-.5.9-.1.2-.2.5,0,.8.2.2.4.2.6.2.2,0,.4,0,.6.2.9.5,1.2,1.6,1,2.6,0,.2,0,.4.3.5.2,0,.4,0,.5-.3h0Z"/>
      <path class="cls-8" d="M182.4,104.8c.4-.3,1-.4,1.5-.2.1,0,.2.1.2.2,0,.1-.1.3-.2.4-.2.4-.4.7-.6,1s-.4.7-.1,1.1c.2.3.5.4.9.5.7.2,1.5,0,2.2-.2.5-.1.3-.9-.2-.7-.6.2-1.4.4-2.1.1,0,0-.1,0-.1,0,0,0,0,0,0,0,.1-.2.2-.4.3-.5.2-.3.4-.7.6-1s.2-.8,0-1.1c-.2-.2-.6-.4-.9-.4-.7-.1-1.4,0-1.9.5-.2.1-.1.4,0,.5s.4.1.5,0h0Z"/>
      <path class="cls-8" d="M177.5,108.3c.2-.2.4-.4.7-.6.1-.1.3-.2.5-.1,0,0,0,0,0,0,0,0,0,0,0,0,0,.1,0,.1,0,.2,0,.2-.1.4-.2.6-.3.5-.5,1-.3,1.6.2.5.7.8,1.2.7.6,0,1.1-.5,1.5-1,.1-.2.2-.4,0-.5-.1-.1-.4-.2-.5,0-.1.2-.3.4-.5.6-.1.1-.3.2-.5.2-.2,0-.3,0-.4-.1-.1-.1,0-.3,0-.5,0-.2.2-.4.3-.6.1-.2.2-.5.3-.8,0-.5-.2-1-.7-1.2-.3,0-.7,0-.9.2s-.5.4-.7.6c-.4.3,0,.9.4.6h0Z"/>
      <path class="cls-8" d="M174.5,114.1c.1-.4.5-.8.9-.9,0,0,.2,0,.1,0,0,0,0,0,0,0,0,0,0,0,0,0,0,0,0,0,0,0,0,0,0,.2,0,.3,0,.1,0,.3,0,.4,0,.6.5.9,1,.9.5,0,1-.4,1.3-.8.3-.4-.2-.9-.5-.5-.2.2-.3.4-.6.5-.1,0-.2,0-.2,0s-.1,0-.2,0c0,0,0,0,0,0,0,0,0,0,0,0,0,0,0,0,0,0,0,0,0,0,0-.1,0,0,0-.1,0-.2,0-.3.1-.5,0-.8s-.3-.5-.6-.6c-.3,0-.6,0-.9.2-.5.3-.8.7-1,1.3,0,.2,0,.4.3.5.2,0,.4,0,.5-.3h0Z"/>
      <path class="cls-8" d="M171.7,120.4c.1-.5.4-1,.8-1.4.1-.1.2-.2.3-.3,0,0,.1,0,.2,0,.1.1.2.4.2.5,0,.3,0,.6.2.9.1.2.4.4.6.4.5.1,1,0,1.3-.5.2-.4-.4-.8-.6-.4-.1.2-.6.3-.7,0s0-.6-.1-.8-.2-.5-.4-.7c-.6-.5-1.2,0-1.6.4s-.7,1-.8,1.6c0,.2,0,.4.3.5.2,0,.4,0,.5-.3h0Z"/>
      <path class="cls-8" d="M173,126.4c0-.5,0-1.1.3-1.6,0,0,0,0,0,0,0,0-.2,0-.2,0,0,0,.1.2.2.2.1.2.2.4.4.6.3.4.8.8,1.3.6.5-.1.8-.6,1-1,0-.2,0-.4-.1-.5-.2-.1-.4,0-.5.1-.1.2-.2.4-.4.5-.1.1-.2.2-.4.1-.1,0-.3-.2-.4-.4-.1-.2-.2-.4-.4-.6-.2-.2-.5-.5-.8-.4-.3,0-.4.4-.5.6-.2.6-.3,1.2-.3,1.8,0,.2.2.4.4.4s.4-.2.4-.4h0Z"/>
      <path class="cls-8" d="M175.3,132.7c0-.3,0-.6-.1-.9,0-.1,0-.4.1-.4.2,0,.4.1.5.2.2.2.5.4.8.5.5.2,1.1.1,1.6-.2s.7-.8.8-1.4c0-.2-.2-.4-.4-.4s-.4.2-.4.4c0,.4-.3.8-.7.9-.2,0-.5,0-.7,0-.2-.1-.4-.3-.6-.4-.5-.3-1.2-.4-1.5.1-.1.2-.2.5-.2.7,0,.3.1.6.1.9,0,.5.7.5.8,0h0Z"/>
      <path class="cls-8" d="M179.8,136.1c.5,0,1.1-.1,1.5-.5.4-.3.5-.9.4-1.4,0-.2-.2-.4-.3-.5,0,0,0-.1-.1-.2,0,0,0-.1,0-.1,0-.1.2-.2.3-.2.2,0,.4,0,.6-.1.5,0,1-.3,1.2-.8.1-.5-.6-.7-.7-.2,0,0,0,0-.1.1,0,0-.1,0-.2.1-.2,0-.5,0-.7.1-.5.1-1,.4-1,1,0,.3.1.5.3.7.1.2.3.4.2.6,0,.5-.8.6-1.2.6-.2,0-.4.2-.4.4s.2.4.4.4h0Z"/>
      <path class="cls-8" d="M187.7,132.9c-.3.6-.7,1.4-.4,2,.3.6.9.7,1.5.8.2,0,.5.1.6.4,0,.2,0,.5,0,.7-.3.6-.9,1-1.2,1.6-.2.4.4.8.6.4.3-.6.9-.9,1.2-1.5.3-.5.4-1.2,0-1.7-.4-.5-1-.5-1.6-.6-.3,0-.5-.2-.4-.6,0-.4.2-.7.4-1,.2-.4-.4-.8-.6-.4h0Z"/>
      <path class="cls-8" d="M195.6,132.2c.4-.1,1.3-.3,1.4.3,0,.2-.1.5-.2.7,0,.3-.1.6,0,.9.2.5.7.8,1.3.9.7,0,1.2-.4,1.8-.7.2-.1.2-.3.1-.5,0-.2-.4-.3-.5-.1-.4.3-.9.7-1.5.6-.2,0-.4-.1-.4-.3,0-.2,0-.5,0-.7.2-.6.2-1.2-.3-1.6-.5-.5-1.3-.3-1.9-.2-.5.1-.3.9.2.7h0Z"/>
      <path class="cls-8" d="M199.9,127.2c.3-.5.9-.4,1.1,0,.1.3.2.6.5.8.3.2.6.2.9,0,.2-.1.4-.3.7-.3.3,0,.6.1.9,0,.5-.2.7-.8.9-1.2s-.6-.6-.7-.2c0,.2-.2.4-.3.6-.2.2-.3.2-.6.1-.3,0-.6,0-.9.1-.1,0-.2.2-.4.3,0,0,0,0,0,0,0,0,0,0-.1-.1-.1-.3-.2-.6-.4-.8-.2-.2-.4-.3-.7-.4-.6-.1-1.2.2-1.5.7-.2.4.4.8.6.4h0Z"/>
      <path class="cls-8" d="M201.2,121.7c.1-.6.4-1.1.8-1.6l-.4.2q0,0,.1,0c0,0,0,.1.1.2.1.2.2.4.4.5.3.4.9.5,1.4.4,1-.4,1.7-1.5,1.8-2.5,0-.2-.2-.4-.4-.4s-.4.2-.4.4c0,.4-.2.8-.5,1.2-.2.3-.5.6-.9.7-.3,0-.5-.2-.6-.5-.2-.3-.4-.6-.8-.7-.2,0-.3,0-.4.2-.4.6-.7,1.2-.8,1.8-.1.5.6.7.7.2h0Z"/>
      <path class="cls-8" d="M200.8,118c0-.2.2-.4.3-.5.1-.1.3-.4.4-.4h-.2c.2,0,.4.2.6.4.2.2.3.4.5.6.3.4.8.6,1.2.2s.8-.8,1.1-1.1c.4-.4.8-.9,1.3-1.3.3-.3-.2-.9-.5-.5-.5.5-1,1-1.5,1.5-.3.3-.5.5-.8.8s0,.1-.2,0-.2-.2-.3-.4c-.3-.4-1-1.1-1.5-.9s-.9.9-1.1,1.4c-.2.4.5.6.7.2h0Z"/>
      <path class="cls-8" d="M182.8,116.2c-.9-.3-2,0-2.5.8-.3.4-.3,1-.6,1.4-.3.4-.7.6-1.2.7-.2,0-.4.1-.4.4s.2.4.4.4c.5,0,1-.3,1.4-.6s.7-.8.8-1.3c.1-.4.4-.7.8-.9.4-.2.8-.2,1.1,0,.2,0,.4,0,.5-.3,0-.2,0-.4-.3-.5h0Z"/>
      <path class="cls-8" d="M184.1,113.8c-.3,0-.5-.2-.8-.3,0,0,0,0-.1-.1,0,0,0,0,0,.1h0c.1-.1.2-.3.3-.4.2-.3.4-.5.6-.8.2-.2.4-.5.5-.8.2-.5.2-1.1-.1-1.5-.4-.4-1-.4-1.4,0-.1.2-.2.4,0,.5s.4.2.5,0c0,0,.1-.1.2,0,.1,0,.1.3.1.4,0,.2-.1.4-.3.6s-.3.5-.5.7-.4.5-.5.7-.3.5-.1.8c.1.2.4.4.6.5.2.1.5.2.8.3.5.1.7-.6.2-.7h0Z"/>
      <path class="cls-8" d="M189.3,112.8c.4,0,.5-.4.5-.8,0-.2,0-.3,0-.4,0,0,0,0,0-.1,0,0,0-.1,0,0,0,0,0-.1,0,0,0,0,0,0,0,0h-.5c.5.5,1.2.4,1.7,0,.6-.4.8-1.1.9-1.8,0-.2-.2-.4-.4-.4s-.4.2-.4.4c0,0,0,.2,0,.3,0,.1,0,.2-.1.4,0,.2-.2.4-.4.5,0,0,0,0,0,0s-.1,0,0,0c0,0-.1,0-.2,0,0,0,0,0,0,0s0,0,0,0h-.2c0,0,0,0,0,0s0,0,0,0c0,0,0,0,0,0,0,0,0,0,0,0,0,0,0,0,0,0-.1-.1-.4-.1-.5,0-.3.3-.2.6-.1,1,0,0,0,.1,0,.2,0,0,0,0,0,0h0c0,.1,0,0,0,0,0,0,0,0,0,0s0,0,0,0c0,0,0,0,0,0-.2,0-.3.3-.3.5,0,.2.3.3.5.3h0Z"/>
      <path class="cls-8" d="M193.9,120.4c.2,0,.4-.2.5-.5.1-.2.2-.3.4-.2.2,0,.4.3.6.4.2.2.4.4.6.5s.5.2.8,0,.4-.3.5-.6c.2-.4.7-.6,1.2-.6s.5-.7,0-.8c-.5,0-1.1.2-1.5.6-.2.2-.3.4-.5.6,0,0,0,.1-.2,0-.1,0-.2-.1-.3-.2-.4-.4-.8-.9-1.4-.9-.3,0-.5,0-.7.3,0,0-.1.2-.2.3,0,0,0,.1-.1.2-.5.1-.3.9.2.7h0Z"/>
      <path class="cls-8" d="M193.6,116.2c.6,0,1.2.1,1.7-.1.5-.2.9-.6,1.1-1.1,0-.2,0-.5,0-.8s-.3-.4-.2-.7c0-.5.6-.9,1-1.1.2-.1.2-.3.1-.5-.1-.2-.4-.2-.5-.1-.5.3-.9.6-1.2,1.2-.1.3-.2.6-.2.8s.2.5.3.8c.1.4-.2.7-.5.9-.5.2-1.1.1-1.6,0-.2,0-.4.2-.4.4s.2.4.4.4h0Z"/>
      <path class="cls-8" d="M195,111.2c0-.1,0-.2.2-.3.2-.1.4-.1.6-.1.5,0,.9-.1,1.3-.3s.7-.6.7-1.1c0-.3,0-.5,0-.8,0,0,0-.2,0-.2,0,0,0-.1,0-.1.4-.3,0-.9-.4-.6-.2.1-.4.4-.4.6,0,.3,0,.5,0,.8,0,.2,0,.4,0,.5,0,0,0,0,0,0,0,0,0,0,0,0,0,0-.2.1-.3.2-.4.2-.9.1-1.4.2-.5.1-1,.5-1,1.1s.8.5.8,0h0Z"/>
      <path class="cls-8" d="M193.1,126.5c-.3.4-.6.9-.6,1.5,0,.6.5.8,1,.8.1,0,.3,0,.4.1.1.1.2.3.2.4.1.5-.2,1-.4,1.4s.4.8.6.4c.2-.5.5-1,.5-1.5,0-.4-.2-.9-.5-1.2-.2-.1-.4-.2-.6-.3-.1,0-.2,0-.3,0,0,0-.2,0-.3,0-.1,0,0-.2,0-.4,0-.2.2-.4.4-.6.3-.4-.2-.9-.5-.5h0Z"/>
      <path class="cls-8" d="M188,126.5c-.6-.1-1.2.1-1.5.7-.1.3-.1.7-.1,1,0,.1,0,.2,0,.3,0,0,0,0,0,0,0,0,0,0,0,0-.2,0-.4.2-.4.4,0,0,0,0,0,0,0,0,0,.1,0,0,0,0,0,.1-.1.2,0,0,0,0,0,0,0,0,0,0,0,0,0,0,0,0-.1,0-.2.1-.4.1-.6,0-.4-.2-.8.4-.4.6.9.5,2-.1,2.1-1.1l-.4.4c.3,0,.6-.2.7-.4s.2-.6.2-.9c0-.3,0-.5.2-.7.1-.1.3-.2.5-.1.5.1.7-.6.2-.7h0Z"/>
      <path class="cls-8" d="M183.8,124c-.8.4-1.1,1.4-.8,2.2,0,.1,0,.2.1.3,0,0,.2.3.2.3,0,0,0-.2,0-.1s0,0,0,0c0,0-.2,0-.3.1-.6.2-1.2.4-1.8.5-.5.1-.3.9.2.7.6-.2,1.2-.4,1.9-.6.2,0,.5-.1.7-.3.2-.2.2-.5,0-.8-.1-.2-.2-.3-.3-.4,0-.1,0-.1,0-.2v-.2s0-.1,0,0c0-.2,0-.3.2-.5,0-.1.2-.2.4-.3.2,0,.2-.4.1-.5-.1-.2-.3-.2-.5-.1h0Z"/>
      <path class="cls-8" d="M180.3,120.7c0,.7.3,1.6,1.2,1.7.8.1,1.3-.7,1.6-1.3,0,0,0-.2,0-.2,0,0,0,0,0-.1,0,0,0,0,0,0,0,0,0,0,0,0,0,0,.1.1.2.1.2.2.5.4.8.4.6,0,1.2-.2,1.5-.8.2-.4-.4-.8-.6-.4-.2.3-.6.5-1,.4-.2,0-.4-.3-.6-.4-.3-.2-.6-.2-.8,0s-.3.5-.4.8c-.1.2-.3.5-.5.7s-.4.2-.6,0-.2-.5-.2-.8c0-.2-.1-.4-.4-.4s-.4.2-.4.4h0Z"/>
      <path class="cls-8" d="M190.2,120.7c-.4.2-.8.5-.9,1-.2.4-.2.9.1,1.3.1.2.3.3.5.4,0,0,.2,0,.2,0,0,0,.2,0,.2,0,0,0,0,0,0,0,0,0,0,0,0,0,0,0-.2.3-.2.3-.1.2-.3.4-.4.6-.1.2-.1.4,0,.5s.4.2.5,0c.2-.2.3-.4.5-.6.1-.2.3-.4.4-.7,0-.5-.3-.7-.7-.8-.1,0-.2,0-.3-.2,0-.1-.1-.2,0-.4,0-.3.4-.6.7-.8.4-.2,0-.9-.4-.6h0Z"/>
      <path class="cls-8" d="M188.3,118.2s0,0,0,0v.4c.1-.2.3-.4.5-.5.2-.1.4-.3.5-.4.3-.4.4-.9.1-1.3-.3-.4-.7-.6-1.1-.7-.2,0-.3-.1-.5-.2-.2,0-.3-.2-.4-.3-.2-.4-.9,0-.6.4.2.4.5.5.9.7.3.1.6.2.9.4.1,0,.2.2.2.3,0,0,0,0,0,0,0,0,0,0,0,0,0,0,0,.1-.1.2-.4.3-.7.6-1.1.9,0,0-.1.2-.1.4.1.3.4.5.7.5.2,0,.4-.2.4-.4s-.2-.4-.4-.4h0Z"/>
      <path class="cls-8" d="M195,123.4s.1-.1,0,0h0s0,0,0,0c0,0,0,0,0,0,0,0,0,0,0,0s.1,0,0,0c0,0,0,0,.1,0,0,0,0,0,0,0,0,0,0,0,0,0,0,0,0,0,0,0,0,.1,0,.3,0,.5,0,.2,0,.5,0,.7.3.6,1,.4,1.5.2s.9-.5,1.2-.9c.1-.2.1-.4,0-.5s-.4-.2-.5,0c-.3.4-.7.7-1.1.8,0,0-.2,0-.3,0s0,0-.1,0c0,0,0,0,0,0,0,0,0,0,0,0,0,0,0,0,0-.1,0,0,0-.2,0-.3,0-.2,0-.5,0-.7s-.2-.4-.5-.5c-.4-.2-.9-.2-1.2.2-.1.2-.2.4,0,.5.1.1.4.2.5,0h0Z"/>
      <path class="cls-9" d="M138.5,83.7c.1-1.3.2-2.6.1-3.9,0-.4-.3-.8-.8-.8-.4,0-.8.3-.8.8,0,1.3,0,2.6-.1,3.9,0,.4.4.8.8.8.4,0,.7-.3.8-.8h0Z"/>
      <path class="cls-9" d="M136,84.1c-.2-1.1-.5-2.2-1-3.3-.1-.4-.5-.7-.9-.5-.4.1-.7.5-.5.9.4,1.1.7,2.2,1,3.3,0,.4.6.6.9.5.4-.1.6-.5.5-.9h0Z"/>
      <path class="cls-9" d="M133.7,85.5l-1.7-1.3c-.1-.1-.4-.1-.6,0s-.4.2-.5.3c0,.2-.1.4,0,.6v.2c.1.1.2.2.3.3l1.7,1.3c.1.1.4.1.6,0s.4-.2.5-.3c0-.2.1-.4,0-.6v-.2c-.1-.1-.2-.2-.3-.3h0Z"/>
      <path class="cls-9" d="M132.2,89.3l-1.8-.4c-.2,0-.4,0-.5,0-.3,0-.6,0-.8.3-.4.4-.4,1,0,1.4.1.1.3.2.5.2s.4,0,.5-.2c.3-.3.3-.8,0-1.1,0,0,0,0,0,0h.1c0,.1,0,.1,0,.1,0,0,0,.1,0,.2,0,0,0,0,0,0v.2s0,0,0,0v.2s0,0,0,0v.2c0,0,0,0,0,0h-.1c0,.1,0,.1,0,0h-.1c0,.1,0,0,0,0h-.2c0,0,0,0,0,0h-.2s.1,0,.2,0h-.2c.3,0,.7.1,1,.2l1,.2c.2,0,.4,0,.6,0,.2,0,.3-.3.3-.4,0-.4-.1-.8-.5-.9h0Z"/>
      <path class="cls-9" d="M132.2,94.8l-3.1-2.1-.8,1.3.4.2c.2,0,.4.1.6,0,.2,0,.4-.2.5-.3.2-.3.1-.9-.3-1l-.4-.2c-.2,0-.4-.1-.6,0-.2,0-.4.2-.5.3-.2.4,0,.8.3,1l3.1,2.1c.3.2.8,0,1-.3.2-.4,0-.8-.3-1h0Z"/>
      <path class="cls-9" d="M131.4,99.1l-1.9-.5c-.7-.2-1.4-.4-2,0-.4.2-.5.7-.3,1,.2.4.6.5,1,.3.1,0-.1,0,0,0,0,0,0,0,0,0h.1s.1,0,.2,0c-.1,0-.1,0,0,0h0c.3,0,.5.1.8.2l1.7.5c.4.1.8-.1.9-.5s-.1-.8-.5-.9h0Z"/>
      <path class="cls-9" d="M129.4,103.4l-2.6-1.2c-.3-.2-.7-.1-1,.2s-.2.7,0,1c0,.1.2.2.3.3.3.3.8.3,1.1,0,.3-.3.3-.8,0-1.1,0-.1-.2-.2-.3-.3l-.9,1.2,2.6,1.2c.2,0,.4.1.6,0,.2,0,.4-.2.5-.3.2-.3.1-.9-.3-1h0Z"/>
      <path class="cls-9" d="M126.5,107.9l-2.5-1.5c-.3-.2-.7-.1-.9.1-.2.3-.4.6-.3,1s.4.6.7.8.8-.1.9-.5c.1-.4-.1-.8-.5-.9h0c0,0,.1,0,.2,0-.1,0,0,0,.1.1,0,.1,0,0,0,0v.2c0,0,0,0,0,0v.2s0,0,0,0v.2s0,0,0,0v.2c0,0,0,0-.1,0h-.9c0,.1,2.5,1.6,2.5,1.6.3.2.8,0,1-.3s0-.8-.3-1h0Z"/>
      <path class="cls-9" d="M123.8,111.5l-1.7-1c-.3-.2-.5-.3-.8-.5-.4-.2-1-.3-1.3.1-.1.2-.2.3-.2.5s0,.4.2.5c.3.2.8.3,1.1,0,0-.1,0,0-.2.1,0,0-.2,0-.2,0,0,0,0,0,0,0-.1,0-.1,0,0,0,.1,0,.2.1.4.2l.7.4,1.5.9c.3.2.8,0,1-.3s0-.8-.3-1h0Z"/>
      <path class="cls-9" d="M120.1,115.7c.2-.1,0,0,0,0,0,0,0,0,0,0,.1,0,.1,0,0,0,0,0-.2,0-.3,0h.2c-.5,0-1,0-1.5,0-.6.1-1.1.5-1.3,1.1-.1.4.1.8.5.9s.8-.1.9-.5c0-.2,0,.1,0,0,.1-.1-.1.1,0,0,0,0,.2-.1,0,0,0,0,0,0,.1,0,0,0,.2,0,0,0,0,0,0,0,.1,0,0,0,.2,0,.3,0h-.2c.3,0,.6,0,.9,0,.2,0,.4,0,.6-.1.3,0,.5-.2.7-.4.1-.1.2-.4.2-.5s0-.4-.2-.5-.3-.2-.5-.2c-.2,0-.4,0-.5.2h0Z"/>
      <path class="cls-9" d="M120.3,120c-.6,1-1,2.2-.9,3.4,0,.4.3.8.8.8.4,0,.8-.3.8-.8,0-.3,0-.5,0-.8,0,0,0,0,0-.1,0,.1,0,.1,0,0,0,0,0-.1,0-.1,0-.1,0-.2,0-.4s0-.2.1-.4c0,0,0-.1,0-.1,0,0,0,0,0-.1,0,.1,0,.1,0,0,.1-.2.2-.5.4-.7.2-.3,0-.8-.3-1-.4-.2-.8,0-1,.3h0Z"/>
      <path class="cls-9" d="M123.5,123.4l1.5,2.2c.1.2.3.3.5.3.2,0,.4,0,.6,0,.3-.2.5-.7.3-1l-1.5-2.2c-.1-.2-.3-.3-.5-.3-.2,0-.4,0-.6,0-.3.2-.5.7-.3,1h0Z"/>
      <path class="cls-9" d="M128.2,121.1c.2.2.3.4.5.6h-.1c.4.3.7.8,1,1.3.2.3.7.5,1,.3s.5-.7.3-1c-.5-.8-1-1.5-1.6-2.2-.1-.1-.4-.2-.5-.2s-.4,0-.5.2-.2.3-.2.5,0,.4.2.5h0Z"/>
      <path class="cls-9" d="M131.7,117.2l2.6,2.3c.1.1.3.2.5.2s.4,0,.5-.2c.3-.3.3-.8,0-1.1l-2.6-2.3c-.1-.1-.3-.2-.5-.2s-.4,0-.5.2c-.3.3-.3.8,0,1.1h0Z"/>
      <path class="cls-9" d="M134.7,113.2l2.1,1.7c.2.1.3.2.5.2s.4,0,.5-.2.2-.3.2-.5c0-.2,0-.4-.2-.5l-2.1-1.7c-.2-.1-.3-.2-.5-.2s-.4,0-.5.2-.2.3-.2.5c0,.2,0,.4.2.5h0Z"/>
      <path class="cls-9" d="M137.5,109c.7.4,1.5.8,2.2,1,.4.1.8-.1.9-.5,0-.4-.1-.8-.5-.9-.3,0-.5-.2-.8-.3h.2c-.4-.1-.9-.3-1.3-.6-.3-.2-.8,0-1,.3s0,.8.3,1h0Z"/>
      <path class="cls-9" d="M139.9,104.8c.7.5,1.6.9,2.4,1.1.4,0,.8-.1.9-.5,0-.4-.1-.8-.5-.9-.4,0-.7-.2-1.1-.4h.2c-.4,0-.8-.3-1.2-.6-.1-.1-.4-.1-.6,0s-.4.2-.5.3c-.2.4,0,.8.3,1h0Z"/>
      <path class="cls-9" d="M141.2,100c.9.5,1.9.8,3,.9.2,0,.4-.1.5-.2s.2-.3.2-.5,0-.4-.2-.5c-.2-.1-.3-.2-.5-.2,0,0,0,0-.1,0h.2c-.4,0-.8-.1-1.2-.2-.2,0-.4-.1-.6-.2-.1,0,.2,0,0,0,0,0-.1,0-.1,0h-.3c-.4-.3-.8-.2-1,.1-.2.3-.1.8.3,1h0Z"/>
      <path class="cls-9" d="M142.7,95.6c.4-.1.9-.2,1.3-.3.1,0,.2,0,.3,0-.1,0-.1,0,0,0h0c0,0,.1,0,.2,0,.2,0,.5,0,.7,0,.4,0,.8-.3.8-.8,0-.4-.3-.8-.8-.8-1,0-2,.2-2.9.5-.4.1-.6.5-.5.9s.5.6.9.5h0Z"/>
      <path class="cls-9" d="M143.6,90.4l2.5-2c.1-.1.2-.4.2-.5s0-.4-.2-.5-.3-.2-.5-.2c-.2,0-.4,0-.5.2l-2.5,2c-.1.1-.2.4-.2.5s0,.4.2.5.3.2.5.2c.2,0,.4,0,.5-.2h0Z"/>
      <path class="cls-9" d="M142.9,86.4c1.1-.9,2.1-1.9,3-3,.1-.2.2-.3.2-.5s0-.4-.2-.5c-.3-.2-.8-.3-1.1,0-.9,1.1-1.9,2.1-3,3-.1.1-.2.4-.2.5s0,.4.2.5.3.2.5.2c.2,0,.4,0,.5-.2h0Z"/>
      <path class="cls-9" d="M140.9,83.7c1-1.1,1.8-2.3,2.6-3.6.2-.3,0-.8-.3-1-.4-.2-.8,0-1,.3-.4.6-.8,1.2-1.2,1.7-.1.1-.2.3-.3.4,0,0,0,0,0,0,0,0,0,.1,0,0s0,0,0,0c0,0,0,0,0,0-.2.3-.4.6-.7.8-.2.3-.3.8,0,1.1.3.3.8.3,1.1,0h0Z"/>
      <path class="cls-4" d="M135.1,90.3c-.6,2.7-.7,5.5-1.2,8.2-.5,2.5-1.3,4.9-2.5,7.2-2.3,4.6-5.4,8.6-8.6,12.6-1.2,1.5.7,3.5,2.1,2.1,6.2-6.1,12.7-12.8,14.7-21.6.5-2.1.7-4.2.6-6.4-.1-1.7-.2-3.9-1.8-5-1.6-1.2-3.4-.2-3.7,1.6-.4,2.4-.4,5-.5,7.4-.1,1.9,2.9,1.9,3,0s.3-4,.4-5.9c0-.2.1-1.1.1-1.1l-1,.5c0,0,.1.2.1.3,0,.6.3,1.4.3,2,.3,3.4-.5,6.8-1.8,9.9-2.7,6.4-7.8,11.3-12.6,16.1l2.1,2.1c3.4-4.1,6.7-8.4,9.1-13.2,1.1-2.3,2.1-4.8,2.6-7.3.6-2.9.7-5.9,1.4-8.8.4-1.9-2.5-2.7-2.9-.8h0Z"/>
      <path class="cls-4" d="M137.7,86.4c-3.9.2-4.6,4.1-5.3,7.2-.8,3.5-1.9,7-3.3,10.3s-3.1,6.5-5.1,9.5c-1.2,1.9-4.8,7-1.6,8.7,1.3.7,2.7,0,3.7-.9,1.4-1.2,2.7-2.6,4-4,2.4-2.6,4.6-5.5,6.5-8.6s3.3-6.3,4.2-9.7,1.7-7.3,1-10.7-4.7-6.1-7.5-3.2c-1.3,1.4-1.6,3.3-1.4,5.1.2,2.1.7,4.1,1.1,6.1.2,1.3,2.2,1.4,2.7.4.7-1.4,1.1-2.8,1.2-4.4.1-1.9-2.8-1.9-3,0-.1.9-.2,1.9-.3,2.8-.2,1.9,2.8,1.9,3,0,.1-.9.2-1.9.3-2.8h-3c0,1-.3,2-.8,2.9l2.7.4c-.2-1.3-.5-2.7-.8-4-.2-1.2-.7-2.9,0-4.1.7-1,1.8-.4,2.3.5.6,1.1.5,2.6.4,3.9-.3,5.5-2.3,10.8-5.1,15.5-1.4,2.3-3,4.5-4.8,6.5-.9,1-1.7,1.9-2.6,2.9-.5.5-.9.9-1.4,1.4-.3.2-.5.5-.8.7l-.3.3c-.5.2-.4.4.2.6,0,0,.3-1.4.4-1.6.3-.6.7-1.2,1-1.8.7-1.1,1.4-2.2,2.1-3.3,1.5-2.4,2.7-4.9,3.9-7.4,1.2-2.8,2.3-5.7,3.1-8.7.4-1.4.7-2.8,1-4.3.2-1.1.5-3.2,2-3.3,1.9-.1,1.9-3.1,0-3h0Z"/>
      <path class="cls-4" d="M136.2,90.8c-1.4,1.9-2.2,4.3-2.2,6.7,0,.8.6,1.4,1.3,1.5s1.4-.4,1.6-1.1c.3-1,.7-2,1-3.1.2-.8-.3-1.7-1-1.9-.8-.2-1.6.2-1.9,1.1-.3,1-.7,2-1,3.1l3,.4c0-.3,0-.5,0-.8,0,0,0-.4,0-.4,0,.2,0,.3,0,.1h0c0-.6.2-1.1.4-1.6,0-.1,0-.2.1-.3,0,0,0-.1,0-.2,0-.1,0-.1,0,0,0-.2.2-.5.3-.7.2-.5.5-.9.8-1.3.2-.3.2-.8.1-1.2s-.4-.7-.7-.9c-.8-.4-1.5-.1-2,.5h0Z"/>
      <path class="cls-4" d="M136,88.1v-.3c-.5-.7-1.6-.9-2.2-.5-1,.7-1.2,1.7-1.4,2.8-.2,1.2-.3,2.4-.5,3.7-.2,2.4-.4,4.8-.5,7.2,0,1.9,3,1.9,3,0,0-2.1.2-4.2.4-6.2,0-1,.2-2,.3-3,0-.4.1-.9.2-1.3,0-.2,0-.4,0-.6.1-.5.2-.2-.1,0l-2-.5v.3c.5.7,1.5.9,2.2.5.7-.4.9-1.3.5-2.1h0Z"/>
      <path class="cls-6" d="M173.7,75c-1.1.8-2.2,1.8-2.3,3.2s.8,2.2,1.9,2.8c.5.2,1,.5,1.2,1,.2.5.3,1,.1,1.5-.3,1.1-1.5,1.7-2.6,1.7-1,0-1,1.5,0,1.5,1.3,0,2.6-.5,3.4-1.5s1-2.4.5-3.7c-.2-.6-.6-1-1.1-1.3s-1.1-.5-1.5-.9c-1.2-1,.4-2.4,1.2-3,.3-.2.5-.6.3-1-.2-.3-.7-.5-1-.3h0Z"/>
      <path class="cls-6" d="M137.4,148.5c-.9-.2-1.5-1.3-1-2.1.2-.3.5-.4.8-.2.4.2.7.6,1.1.9.5.4,1,.7,1.6.7.7,0,1.4-.4,1.9-.8,1-1,1.6-2.4,1.9-3.7.2-.9-1.2-1.3-1.5-.4-.2,1.1-.7,2.2-1.5,3-.3.3-.6.5-1,.4-.3-.1-.6-.4-.9-.6-.8-.7-1.7-1.3-2.7-.9s-1.6,1.5-1.5,2.6c.1,1.2,1,2.3,2.2,2.6.9.2,1.3-1.2.4-1.4h0Z"/>
      <path class="cls-6" d="M181.4,151.6c1,1.8,1.2,3.8.5,5.8-.7,1.8-1.9,3.8-.8,5.8.8,1.5,2.9,2,4.2.7,1.3-1.5,1.3-3.8,1.5-5.7,0-.6.1-1.3.2-2,0-.2,0-.6.1-.8.1-.2.3-.3.6-.4,1.1-.4,2.2-.9,3.4-.4.9.4,1.3-1.1.4-1.4s-1.8-.3-2.7,0c-.8.2-1.9.5-2.5,1.1-.7.6-.6,1.7-.8,2.6-.1,1.1-.2,2.2-.4,3.3-.1.9-.2,1.9-.8,2.7s-1.4.6-1.8-.1c-1.1-1.6.7-4,1.1-5.5.6-2.1.1-4.3-.9-6.1-.5-.9-1.8,0-1.3.8h0Z"/>
      <path class="cls-14" d="M156.7,96.5c.7-.6,1.9-1.6,2.9-1.4,1.4.3,1.1,2,.2,2.6-.8.6-1.9.5-2.9.7s-1.8.4-2.6,1c-1.3,1.1-2,3-1.1,4.6s2.7,2.2,4.3,1.4c.7-.4,2.1-1.6,2.2,0,0,1-.3,1.9-1,2.6-.8.8-1.9.9-3,1-1,0-2.1-.2-3,.2-1.6.7-1.2,3.1-.6,4.3.8,1.7,2.4,2.8,4.2,3.2,1,.2,2.3.3,3.2,0,.2,0,.4-.3.4,0,0,.1-.2.5-.2.6-.3.4-.7.8-1.1,1.1-2.2,1.4-4.8.7-6.6-1-1.1-1-2.7.6-1.6,1.6,1.8,1.6,4.1,2.6,6.6,2.3,2-.3,4.3-1.5,5-3.5.3-.8.4-1.8-.1-2.5-.6-1-1.7-.9-2.7-.7-1.3.2-2.7.3-3.9-.5-.5-.3-.9-.7-1.1-1.2-.1-.3-.3-.6-.3-.9,0-.2,0-.4,0-.6,0-.3,0-.3-.2,0,2.4.1,5.1,0,6.9-1.8,1.4-1.5,2-4,1.1-5.8-.5-1-1.4-1.5-2.5-1.4-1,.1-2.5,1.6-3.3,1.2-1.5-.7,0-2.4.9-2.7,1.2-.4,2.5-.3,3.7-.8,2.3-.9,3.4-3.9,1.8-5.9-2-2.5-5-.8-7,.8-1.1.9.5,2.5,1.6,1.6h0Z"/>
      <path class="cls-14" d="M154.7,149.2c-2,0-4.4.1-5.7,1.9-1.4,1.9-.3,4.3,1.9,4.7,1.2.2,2.3-.2,3.3-.6,1-.4,2.2-1.2,3.3-.9.9.2.7,1,0,1.4-.5.3-1.2.2-1.7.3s-1,.2-1.5.4c-2.2,1-1.9,3.7-.2,5.1,1.8,1.5,4.2,1.1,6.2.2.6-.3,1.1-.6,1.6-.9.2-.1.6-.3.8-.5h.1c.3-.2.2-.3-.2-.3,0,0,.3.6.3.6,0,.2,0,.4,0,.7-.1.6-.5,1.2-.9,1.7-.8.9-1.9,1.5-3,1.9-1,.4-2.1.9-2.1,2.2,0,2.8,4.1,2.6,5.9,2.1,2.6-.8,4.7-2.7,5.9-5.1.6-1.3-1.3-2.4-1.9-1.1-.9,1.9-2.4,3.4-4.4,4.1-.9.3-1.9.5-2.8.2,0,0-.3-.1-.4-.1h-.1c-.1.3,0,.4.2.1.4,0,1.1-.4,1.5-.6,1.8-.9,3.6-2.4,4.1-4.4.4-1.5,0-4.4-2.2-4.2-.9,0-1.8.8-2.6,1.3-.9.5-2,1.1-3.1,1.1-.7,0-1.5-.2-2-.8-.1-.2-.4-.6-.3-.8.1-.3.9-.4,1.2-.4,1-.1,1.9-.1,2.8-.7.7-.5,1.3-1.3,1.5-2.1.4-1.9-1.2-3.3-3-3.4-1.2,0-2.3.4-3.4.9-.8.4-2.2,1.2-3.1.6s.4-1.5,1-1.7c.9-.3,1.9-.3,2.9-.3,1.5,0,1.4-2.2,0-2.2h0Z"/>
    </g>
  </g>
  <g id="Layer_15" data-name="Layer 15">
    <path class="cls-12" d="M199.7,304.1c-33.4-50.4-66.8-100.7-100.2-151.1,35.4,20.4,76.4,36.7,103,20.2,24.6-15.3,27.4-52.8,29.2-52.3s-3.5,37.2-32.1,183.2h0Z"/>
  </g>
  <g id="Layer_5" data-name="Layer 5">
    <path class="cls-16" d="M330,74.8l-13.9,27.3c-9.5,17.3-15,16.9-33.2,26.9,6,3,16.2,7,22.2,10,10.9-21.3,21.9-42.6,32.8-63.9l-7.9-.3h0Z"/>
  </g>
  <g id="Layer_1-2" data-name="Layer 1">
    <rect class="cls-18" x="185.3" y="220.2" width="115.8" height="13.6" transform="translate(-70.4 337.9) rotate(-62.5)"/>
    <rect class="cls-7" x="204.5" y="211.7" width="77.3" height="30.6" transform="translate(-70.4 337.9) rotate(-62.5)"/>
    <path class="cls-7" d="M301.5,146l-30.2-15.7c5.1-9.8,33.5-62.5,38.6-72.2,7.7,19.9,28,17,28,17-5.4,10.4-31,60.5-36.4,70.9h0Z"/>
    <path class="cls-15" d="M305.1,139c1.6,4.9,3.2,9.9,4.8,14.9-19.1,36.7-38.2,73.4-57.3,110.1-16.4-8.5-32.8-17-49.1-25.6l58.2-111.9c3.9-.6,7.8-1.2,11.7-1.9,10.6,4.8,21.2,9.5,31.7,14.3h0Z"/>
    <path class="cls-5" d="M261.6,126.5l-58.2,111.9c7.3,4.4,14.6,8.9,21.9,13.3,9.1,4.1,18.1,8.2,27.2,12.3-6.7-8.4-14.3-21-13.7-35.9.9-21.6,18.3-30.2,24.9-55.5,2.8-10.6,4.1-25.8-2.2-46h0Z"/>
  </g>
  <g id="Layer_3" data-name="Layer 3">
    <path class="cls-7" d="M300.8,202.5c-.2,0-.5,0-.8,0,.6-.2,1.2-.2,1.8-.2,8.2-3,14.1-10.8,14.1-20s-9.5-21.3-21.3-21.3-21.3,9.5-21.3,21.3,9.5,21.3,21.3,21.3,2.2-.1,3.3-.3c.8-.5,1.8-.9,2.8-.9h0Z"/>
    <circle class="cls-16" cx="282.9" cy="210.4" r="9.5" transform="translate(22.8 448.4) rotate(-79.1)"/>
    <path class="cls-16" d="M315.5,193.6c-.1,0-.2,0-.3,0l1.6.2c-1.4-.2-2.8-.6-4.2-1.2l1.4.6c-1.2-.5-2.4-1.1-3.4-1.9l1.2.9c-.6-.4-1.1-.9-1.5-1.5l.9,1.2c-.3-.4-.6-.8-.8-1.3l.6,1.4c-.1-.4-.2-.7-.3-1.1l.2,1.6c0-.4,0-.7,0-1.1l-.2,1.6c0-.4.2-.8.3-1.2l-.6,1.4h0c.4-.8.7-1.5.7-2.3.2-.8.1-1.6-.1-2.4-.4-1.4-1.5-2.9-2.8-3.6-1.4-.7-3.1-1.1-4.6-.6-1.4.4-3,1.4-3.6,2.8-.3.7-.7,1.4-.9,2.1s-.3,1.6-.4,2.4c0,.2,0,.5,0,.7,0,.8.1,1.6.3,2.3,0,.2.1.5.2.7.3.7.5,1.4.9,2,.5.9,1.2,1.7,1.9,2.4s1.6,1.4,2.4,2c.5.4,1,.7,1.5.9,1.4.8,3,1.5,4.6,2s3.1.8,4.8.9c.8,0,1.6-.1,2.3-.5.7-.2,1.4-.7,1.9-1.2,1-1,1.8-2.8,1.8-4.2s-.6-3.2-1.8-4.2l-1.2-.9c-.9-.5-2-.8-3-.8h0Z"/>
    <path class="cls-7" d="M295.7,196.4c2.8.5,5.4,1.3,8,2.4.7.3,1.7,0,2.3-.3s1.2-1.1,1.4-1.8c.2-.8.1-1.6-.3-2.3s-1-1.1-1.8-1.4c-2.6-1-5.3-1.8-8-2.4-.8-.2-1.6-.1-2.3.3-.6.4-1.2,1.1-1.4,1.8-.2.8-.1,1.6.3,2.3.4.6,1,1.2,1.8,1.4h0Z"/>
    <path class="cls-7" d="M295.4,177.5c-3.4,1.6-6.3,4.9-7,8.6s.5,8.1,3.7,10.6c3.4,2.8,8,3,11.9,1,3.7-1.9,6.1-5.8,7.1-9.7,1.8-7.1-1.4-16.1-9.6-16.9-7.2-.7-13.7,5.9-14.2,12.8-.2,3.2.9,6.9,3.4,9.1,3.6,3,8.3,2.1,12.3.3,3.7-1.7,6.9-4.6,8.2-8.5,1.4-4.1.2-8.9-3.4-11.5-3.2-2.3-7.9-2.2-10.8.7-1.5,1.5-2.3,3.5-3,5.5-.7,2.1-1.2,4.4-1.1,6.7.2,4.3,2.6,8.5,6.9,9.8s8.5-1.5,10.9-4.9c2-2.9,2.9-7.1,1.6-10.5s-4-5.9-7.6-6.7-7.2,0-9.5,2.9c-2.7,3.4-3.3,8.3-2.7,12.5s3.4,7.7,7.4,9.1c4.3,1.5,8.1-.9,11.1-3.9s5.5-7,4.5-11.4c-.8-3.4-3.9-5.9-7.2-6.9-8-2.2-14.2,4.6-16.1,11.7-1,3.8-1,8.4,2.4,11.1s8.1,1.4,11.2-.9,6.1-5.8,7.2-9.7,0-7.9-2.6-10.8c-2.9-3.1-7.3-3.7-11-1.9s-6,6-6.2,10.1,1.4,8.9,5.6,10.5,8.7-1.3,10.9-4.8,3.6-8.9.8-12.7-7.6-4.5-11.2-1.4c-1.3,1.1-2.3,2.7-3,4.3-1,2.2-2,4.7-.6,7,1,1.8,3.1,2.7,5.1,2.6,2.3-.1,4.1-1.3,5.5-3.2,1.1-1.5,1.9-3.6,2.2-5.4.4-2.6-.9-5-3.6-5.6-4.8-1-7.7,4.2-7.8,8.3,0,2.4,1.8,4.7,4.3,4.6,2.7,0,4.4-2.2,4-4.8-.3-1.6-2.2-2.5-3.7-2.1-1.7.5-2.4,2.1-2.1,3.7v-.4c0,0,.3-1.5.3-1.5.2-.5,1-.8,1.5-.8.7,0,2.1,1.1,1.7,1.4h0c0,0,0-.3.2-.5,0-.3.2-.5.2-.8s.2-.5.3-.8c-.2.5.2-.4.2-.4h0c.3-.1.3-.2,0,0q.3-.2,0,0h-.3c.5,0,0,0-.3-.1l-.2-.2c-.4-.3-.5-.7-.4-1.2.1,0-.5,1.6-.6,1.8-.2.5-.3.7-.6,1.3-.2.3-.4.5-.7.8.4-.3,0,0-.2,0,.7-.1,0,0-.2,0h.3c-.3,0-.3,0,0,0-.4-.4,0,0,.1.2.5.5.2.4.5-.4,0-.1.4-.9.6-1.3.3-.5.6-1.1,1-1.6-.3.4.3-.3.3-.3,0,0,.7-.6.3-.3s.4-.3.4-.2h.2c-.3,0-.3,0,0-.1h.3c-.3,0-.3,0,0,0-.5-.2.3.1.4.1-.5-.2.4.3,0,0,.2.2.5.4.7.7-.3-.4.2.5.2.4-.2-.4,0,.2,0,.3.3,1.1,0,2.3-.4,3.5-.2.6-.5,1.1-.8,1.6-.2.4-.7,1-.8,1.2-.8.9-1.3,1.4-2.4,1.5.5,0-.5,0-.5,0,.5,0-.5-.1-.5-.1.4.2-.5-.3,0,0,0,0-.6-.6-.4-.4-.2-.2-.4-.8-.5-.9,0-.3-.2-.6-.3-.9,0,0-.2-1-.1-.5-.2-1.4,0-2.3.2-3.5s.8-1.7,1.5-2.5c.5-.5,1.5-1,2.2-1.1.2,0,.8,0,1,0s.9.3.4,0c.3.1.5.3.8.4.7.4-.2-.3.3.2.2.2.4.4.6.6-.4-.4.2.3.2.3.1.2.2.4.4.6,0,.1.3.7.1.2,0,.3.2.6.3.8s.1.6.2.9c0-.6,0,.2,0,.4,0,2-1.1,4.2-2.5,5.8-.9,1-1.7,1.8-2.6,2.3-1.1.7-1.7,1.1-3,1.2.6,0-.4,0-.4,0h-.3c.3,0,.3,0,0,0,.5.3-.3-.2-.3-.2.4.3-.2-.3,0,0,.2.3-.3-.5-.3-.4.3.5-.1-.3-.1-.4,0,0-.1-1,0-.4,0-.3,0-.6,0-.9,0-1.8.8-4.3,1.8-6.1.7-1.1,1-1.6,2-2.5,0,0,.6-.5.2-.2.2-.2.5-.4.8-.5s.5-.3.8-.4c.6-.3-.2,0,.4-.1.3,0,.5-.1.8-.2.8-.2-.5,0,.3,0,.3,0,.5,0,.8,0,0,0,.9,0,.4,0s.4,0,.4,0c.3,0,.5.1.8.2,0,0,.9.4.3.1.2.1.5.2.7.4,0,0,.8.5.2.1.2.2.4.3.6.5,0,0,.6.7.2.2.1.2.2.4.3.5,0,.1.2.7,0,0,0,.2.2.5.2.8-.2-.7,0,.3,0,.4,0,.5,0,.1,0,.6-.3,1-.8,2-1.5,2.8-.8,1.1-1.9,2.1-2.9,3-.5.4-.8.7-1.4,1-1,.5.4-.1-.5.2-.8.3.2,0-.3,0-1,0-1.5-.1-2.4-.7-.3-.1-.6-.5-1.1-.9-.2-.2-.4-.6-.7-1.2-.4-.9-.6-2.1-.7-3.2,0-2.2.3-5,1.7-6.4,0,0,.7-.5.2-.2.2-.1.4-.3.7-.4.6-.4-.5,0,.2,0,.2,0,.4-.1.6-.2.5-.1-.7,0,0,0,.3,0,.5,0,.8,0s1,.1.2,0c.3,0,.5.1.8.2s.5.1.8.2c-.6-.2.2,0,.2.1.2.1.5.3.7.4.7.4-.2-.2.1,0,.2.1.3.3.5.4,0,0,.5.7.2.2.2.2.3.4.4.7.3.5,0-.2.2.4.3,1,.4,1.6.2,2.6-.1.9-.4,1.6-.9,2.5-.2.3-.3.5-.5.8.3-.4-.3.3-.3.3-.2.2-.4.4-.6.6-.6.6.2-.1-.2.2s-1,.6-1.3.8c0,0-1,.2-.7.2-.1,0-.9,0-.4,0,0,0-.9-.3-.4,0-.3-.1-.5-.3-.8-.4.4.3-.3-.3-.3-.3,0,0-.6-.7-.4-.4s-.3-.6-.3-.5c0,0-.4-.9-.2-.4-.2-.6-.3-1.2-.4-1.8-.2-2.6.8-5.6,1.9-7.6.4-.6-.2,0,.3-.5,0,0,.8-.6.4-.4,0,0,.8-.4.3-.2,0,0,.8-.2.4-.1s.5,0,.4,0c.1,0,.9.2.3,0,.3,0,.5.1.8.2-.5-.2.2.1.3.2,0,0,.8.6.3.2.2.2.4.4.6.6-.4-.4.2.4.2.4.5.8,0-.1.2.4.4,1.1.4,1.9.1,2.9s-.8,2-1.4,2.7c-.9,1-1.6,1.5-2.7,2.1s-2,1-3.3,1.4c-.6.2-1.1.3-1.7.3,0,0-1,0-.7,0-.1,0-.9-.3-.4,0-.2-.1-.5-.2-.7-.4-.6-.4.3.4-.2-.2-.2-.2-.3-.4-.5-.6.4.5,0,0,0-.1,0-.2-.2-.4-.3-.6-.4-.7,0,.5,0-.3,0-.3-.2-.5-.2-.8,0-.2-.2-.8,0-.3,0-.6,0-1.1,0-1.6,0,0,0-1,0-.3,0-.2,0-.4.1-.7.1-.5.2-1,.4-1.4-.2.6.2-.3.2-.3.1-.3.3-.5.4-.8,0,0,.6-.8.2-.3.2-.2.4-.4.6-.7.4-.4.8-.8,1.2-1.1s-.6.3.2-.1c.2-.1.5-.3.7-.5s.5-.3.8-.4c.6-.3-.2,0,.3-.1.5-.2,1.1-.3,1.6-.4-.7.1.2,0,.3,0h.7c.2,0,.7.1.2,0,.3,0,.5.1.8.2,0,0,.8.4.3.1.3.1.5.3.8.4.7.4-.3-.3.3.2.2.2.4.4.6.6.6.6-.2-.4.2.3.1.2.3.4.4.6s.2.4.3.6c-.2-.5.1.3.1.4.2.6.3,1.1.4,1.7.2.9,0-.5,0,.4,0,.3,0,.6,0,.9,0,.6,0,1.1,0,1.6s.2-.7,0,.2c0,.3-.1.6-.2.9-.2.7-.4,1.4-.6,2-.8,1.8-2.4,3.8-4.2,4.4-2.2.7-3.6.3-5-1.1-.2-.2-.4-.6-.8-1.2-.4-.7,0,.4-.2-.4,0-.2-.2-.5-.2-.7,0-.1-.1-.8,0-.3,0-.3,0-.6,0-.9,0-.6,0-.6.3-1.4.2-.8.8-1.6,1.4-2.3.8-.8,1.4-1.3,2.6-1.8,1.5-.7,1.8-2.8,1.1-4.1-.9-1.5-2.6-1.7-4.1-1.1h0Z"/>
    <path class="cls-7" d="M312.1,197.8c4.9-6.1,7.1-15.1,2.5-22.1-.9-1.3-2.7-2-4.1-1.1-1.3.8-2,2.7-1.1,4.1.2.3.4.6.6,1,0,.2.2.3.3.5.4.8,0-.3,0,.2.3.7.5,1.4.6,2.1,0,.2,0,.4,0,.5,0,.4,0-.4,0,.1,0,.4,0,.7,0,1.1s0,.7,0,1.1c0,.2,0,.4,0,.6,0,.6,0-.2,0,.2-.1.7-.3,1.4-.5,2.2,0,.4-.2.7-.3,1.1,0,.2-.2.4-.2.6.1-.3,0-.2,0,0-.3.7-.7,1.3-1,2-.2.4-.4.7-.7,1,0,.1-.2.3-.3.4-.3.4.4-.5-.1.1-1,1.2-1.3,3.1,0,4.2,1.1,1,3.2,1.3,4.2,0h0Z"/>
    <path class="cls-7" d="M301.8,195c-1.5-.9-3.1-1.8-4.8-2.2-2.1-.5-4.5-.3-6.3,1-.5.3-.8.6-1.1,1.1-.3.5-.4,1-.4,1.5,0,1.1.6,2,1.5,2.6,1.1.7,2.3,1.5,3.4,2.2,1.3.9,3.4.3,4.1-1.1.8-1.5.3-3.2-1.1-4.1-1.1-.7-2.3-1.5-3.4-2.2v5.2c.3-.2.6-.4,1-.6l-.7.3c.3-.1.7-.2,1-.3h-.8c.5,0,1,0,1.4.1h-.8c.8,0,1.5.2,2.2.5l-.7-.3c.8.4,1.7.8,2.5,1.3,1.3.8,3.4.3,4.1-1.1.8-1.5.3-3.2-1.1-4.1h0Z"/>
    <path class="cls-7" d="M308.2,179c-.7-2.1-2.8-3.2-4.9-2.5s-2.9,2.9-2.8,5c.2,3.7,1.5,6.9,3.8,9.8.6.8,2,1.1,2.9.8,7.1-2.1,10.2-12.9,3.5-17.5-1.9-1.3-4.4-1.5-6.3-.2-1.8,1.2-2.5,3.2-2.8,5.3-.2,1.9.2,3.9.7,5.7.6,2.1,1.3,4.4,2.9,6.1,1.7,1.9,4.4,2.4,6.6,1.1,1.9-1.2,3.1-3.4,3.8-5.5,1.2-3.8.6-8.8-2.4-11.7-1.7-1.6-4.1-2.4-6.3-1.6-2,.7-3.3,2.4-3.8,4.4-1,3.4-.2,7.8,2.3,10.5,1.5,1.6,3.6,2.3,5.6,1.7,2.2-.6,3.6-2.6,4.3-4.7,1.3-4,1-9.2-2.8-11.7-1.9-1.2-4.3-1.4-6.3-.3-1.8,1-2.8,2.9-3.2,4.8s-.2,3.9,0,5.9c.3,2.1,1,4.3,2.7,5.8s3.8,2.3,6,1.9,3.9-2.3,4.6-4.4c1.3-3.9.3-8.7-1.6-12.2-.9-1.8-2.3-3.8-4.1-4.8-2.4-1.2-5.1-.2-6.4,2.1-1.1,1.9-1.3,4.2-1.4,6.3-.2,2.3,0,4.6.3,6.8.3,2.1.8,4.2,1.6,6.2,1,2.5,2.8,3.9,5.6,3.5,4.8-.7,7.2-5.6,7.2-9.9,0-3.9-.9-8.1-2.4-11.6-.7-1.6-1.6-3-2.8-4.2-1.5-1.5-4.1-3.3-6.3-2.1-1.4.7-2,2.3-1.6,3.8s2.3,2.8,3.9,2.1c1.5-.6,2.5-2,2.1-3.7-.4-1.4-2.2-2.7-3.7-2.1h-.1c0,0,2.9.8,2.9.8h-.1c0-.1.8,1.2.8,1.2v-.2c0,0,0,1.6,0,1.6h0c0-.1-1.4,1.6-1.4,1.6h.2c0,0-1.5.3-1.5.3-1.2-.1-.8-.2-.2.1.2.1.3.2.5.3-.5-.4.3.3.3.3.1.1.3.3.4.4.6.6-.2-.4.2.3.1.2.2.3.3.5.3.5.6,1.1.8,1.6-.2-.4,0,0,0,.1,0,.3.2.6.3.9.2.5.3,1,.4,1.5.2,1,.4,2,.6,3.1.2,1.2.4,2.5.3,3.8,0,.5-.2,1.1-.3,1.6-.3.9.1-.2-.1.3,0,.1-.5.8-.3.6-.1.2-.3.3-.4.5-.5.5.2,0-.4.3-.6.3-.2.1-.1,0-.2.1-.3.2-.4.1.2.1,1,.6,1.2.6v.2c0-.2-.1-.5-.2-.8-.2-.6-.4-1.3-.6-1.9-.7-2.6-1-5.3-.8-8,0-1.2.2-2.3.5-3.5,0-.2,0-.4.2-.6-.2.6,0-.3.2-.3,0,0-.4.4-.3.4-.5.3-.9.3-1.4.1-.1-.1-.1,0,0,0,.2.4.5.6.7.9.3.5.7,1,.9,1.5.5.9.9,2.1,1.1,3.4.2.8.2,2.1.1,3.1,0,.3,0,.5-.3,1.1,0-.2.2-.2,0,.1.2-.2.2-.1,0,.1,0,0,.1-.1.2-.1h0c-.3,0-.4,0,0,0,0,0-.5.1,0,0h-.3c.2,0,.2,0-.1-.1-.3-.1-.3-.2-.1,0,0,0-.7-.7-.3-.3-.1-.2-.3-.4-.4-.6,0-.2-.3-1.1-.4-1.6,0-.6-.2-2-.2-2.9,0-.2,0-.4,0-.6,0-.9-.2.4,0-.4,0-.2,0-.4.2-.6-.2.7.3-.6.1-.2s.4-.3,0,0,.3,0,0,0c-.5,0,.7,0,0,0,.4,0,.3.1,0,0,0,0,.8.5.4.2.3.2.3.3.1,0,.3.3.4.9.5,1.1.2,1.1,0,2.1-.3,3.1,0,.2-.1.4-.2.6-.2.8.2-.3-.2.4-.3.5,0,.2,0,.1-.2.4,0,.1.3,0h.1c-.4,0-.3,0,0,0,.6.2,0-.1.1,0,.2.4-.3-.3-.3-.3.3.3,0,0,0,0-.2-.3-.3-.5-.4-.8.2.4,0,0,0-.1,0-.3-.2-.6-.2-.9,0-.1-.2-1,0-.3,0-.5,0-.9,0-1.4,0,0,0-.9,0-.4s0-.4,0-.4c0-.2,0-.3.2-.5-.2.6,0,0,.1-.2-.2.4-.1.2,0,0-.3.2-.3.2,0,0-.3.1-.3.1-.1,0,.3,0-.1,0-.2,0h.3c-.2,0-.2,0,0,.1,0,0,.5.5.5.5.5.7.9,1.9.9,2.7,0,1.2,0,1.7-.4,2.9-.2.6-.1.4,0,.2-.1.3-.3.6-.5.9-.1.2-.2.4-.4.6-.2.2-.4,0,.1.1,0,0,.7,0,.7,0,.2.2.2.1,0-.1h0c-.4-.4-.6-.9-.8-1.4-.5-1.5-1-3.1-1.2-4.7-.1-.7,0,.6,0-.2v-.8c0-.8-.2.5,0-.3,0-.3.1-.5.2-.8-.3.8.2-.2,0,.1-.1.2-.1.1,0,0-.1.1-.3.2-.5.3.7-.3,0,0,0,0-.2.2-.5-.3,0,0,.3.3.4.4.7.8.4.6,0-.5.1.2,0,.2.1.5.2.8.2.8,0-.4,0,.1,0,.3,0,.6,0,.9,0,.5,0,.1,0,0,0,.3-.1.6-.2.9,0,.2-.1.4-.2.6.2-.6,0,.1-.1.3-.1.2-.3.4-.4.7-.3.5.3-.2-.2.2-.2.2-.3.3-.5.5,0,0-.2.2-.3.3q.3-.2,0,0c-.2,0-.3.2-.5.3-.3.1-.3.2,0,0-.2,0-.3.1-.5.2l2.9.8c-.7-.9-1.3-2.2-1.7-3.3-.2-.6-.3-1.3-.4-1.7s0-.7,0-1.1c0-.2,0-.2,0,0-.8,1.3-1.9,1.6-3.3.7l-.8-1.3v.2c.6,1.5,2.1,2.6,3.8,2.1,1.5-.4,2.6-2.1,2.1-3.7h-.1Z"/>
    <path class="cls-7" d="M303.3,174.3c-1,2.1-1.3,4.3-.8,6.6.4,1.9,1.5,3.8,3,5.1.6.5,1.3.9,2.1.9.8,0,1.6-.3,2.1-.9,1.3-1.6,2.2-3.4,2.5-5.4s.3-4.5-.9-6.3c-.7-1.1-1.7-2-3-2.4-1.5-.4-3.1,0-4.2,1.2-.8.9-1.2,2-1.5,3.2-.2,1-.3,1.9-.2,2.9.2,2.4,1.1,4.5,2.6,6.4.7.8,1.9,1,2.9.8,2.9-.7,4.6-3.8,4-6.6-.3-1.4-1.3-2.5-2.4-3.3-1.2-.9-2.7-1-4.2-.8-.7.1-1.5.8-1.8,1.4-.4.6-.5,1.6-.3,2.3s.7,1.4,1.4,1.8c.8.4,1.5.4,2.3.3h.1s-.8,0-.8,0c.2,0,.4,0,.6,0h-.8c.2,0,.5,0,.7,0l-.7-.3c.2,0,.3.2.5.3l-.6-.5c.2.1.4.3.5.5l-.5-.6c.1.2.2.3.3.5l-.3-.7c0,.2.1.4.2.6v-.8c0,.2,0,.4-.1.6v-.8c0,.2,0,.5,0,.7l.3-.7c0,.2-.2.4-.4.6l.5-.6c-.1.2-.3.3-.4.4l.6-.5c-.2.1-.3.2-.5.3l.7-.3c-.2,0-.3.1-.5.1l2.9.8c0-.1-.2-.2-.2-.3l.5.6c-.4-.5-.7-1-.9-1.6l.3.7c-.2-.6-.4-1.3-.5-1.9v.8c0-.7,0-1.3,0-2v.8c0-.6.1-1.2.4-1.8l-.3.7c0-.2.2-.4.3-.6l-.5.6c0-.1.2-.2.3-.3l-.6.5c0,0,.1,0,.2-.1l-.7.3c0,0,.2,0,.3,0h-.8c0,.1.2.1.3.1h-.8c0,0,.2,0,.3,0l-.7-.3c.2,0,.3.2.5.3l-.6-.5c.2.2.3.3.5.5l-.5-.6c.2.2.3.5.4.8l-.3-.7c.2.4.2.8.3,1.1v-.8c0,.7,0,1.5-.1,2.2v-.8c0,.7-.2,1.4-.4,2l.3-.7c-.3.6-.6,1.2-1,1.8l.5-.6c0,0-.1.1-.2.2h4.2c-.4-.3-.7-.7-1-1l.5.6c-.3-.5-.6-.9-.8-1.5l.3.7c-.2-.6-.4-1.2-.5-1.8v.8c0-.6,0-1.2.1-1.8v.8c0-.5.1-1,.3-1.5l-.3.7c0-.1,0-.2.2-.3.3-.7.5-1.5.3-2.3-.2-.7-.7-1.4-1.4-1.8-1.3-.7-3.4-.4-4.1,1.1h0Z"/>
    <path class="cls-16" d="M299.4,200.5c1.3.9,2.6,1.9,3.8,2.8l-2.4-1.9c8.4,6.5,16,14,22.5,22.4l-1.9-2.4c7.8,10.1,14,21.3,18.9,33.1l-1.2-2.9c2.9,7,5.5,14.1,7.8,21.2,2.5,7.9,5.1,15.9,6.2,24.1l-.4-3.2c.9,6.9.9,13.9,0,20.8l.4-3.2c-1.1,7.9-3.3,15.6-6.4,23l1.2-2.9c-1.2,2.7-2.5,5.4-3.8,8.1-1.5,2.8-2.1,6.1-1.2,9.2.8,2.8,2.9,5.8,5.5,7.2,2.8,1.5,6.2,2.2,9.2,1.2,2.9-.9,5.7-2.7,7.2-5.5,7-13.2,11.4-27.5,12.4-42.4.5-7.3-.2-14.6-1.5-21.9-1-5.8-2.8-11.4-4.5-17-6.5-21.1-14.8-42.1-28.1-59.8-4.3-5.8-8.9-11.3-14-16.3-5.5-5.4-11.4-10.2-17.7-14.6-2.4-1.7-6.5-2-9.2-1.2s-5.8,2.9-7.2,5.5c-1.5,2.8-2.2,6.2-1.2,9.2l1.2,2.9c1.1,1.8,2.5,3.2,4.3,4.3h0Z"/>
    <path class="cls-16" d="M296,198.7c1.6,1.5,3.2,3,4.8,4.4,1.1,1.2,2.4,2,3.9,2.5,1.4.8,3,1.1,4.6,1,1.7,0,3.2-.3,4.6-1,1.5-.5,2.8-1.3,3.9-2.5l1.9-2.4c1.1-1.9,1.6-3.9,1.6-6.1l-.4-3.2c-.6-2-1.6-3.8-3.1-5.3-1.6-1.5-3.2-3-4.8-4.4-1.1-1.2-2.4-2-3.9-2.5-1.4-.8-3-1.1-4.6-1-1.7,0-3.2.3-4.6,1-1.5.5-2.8,1.3-3.9,2.5l-1.9,2.4c-1.1,1.9-1.6,3.9-1.6,6.1l.4,3.2c.6,2,1.6,3.8,3.1,5.3h0Z"/>
    <path class="cls-16" d="M298.5,175.3c-3.2-1.3-7.7,0-9.9,2.6-.8,1-1.5,2-1.9,3.3-.5,1.8,0,3.5.8,5.1s2.3,2.9,3.8,3.9c2.5,1.7,6.1,2.2,9,1.4,3.5-1,5.9-3.6,7.1-6.9,1.1-2.8.8-6.2-.8-8.8-1.8-3.1-5.2-4.8-8.7-5s-6.7,1.6-8.7,4.4c-1.6,2.3-2,5.6-1.2,8.2s2.6,5.2,5.1,6.5c3,1.6,6.7,1.6,9.7-.3,5.5-3.4,7-11.4,2.5-16.3-4.1-4.4-11.5-4.1-15.7,0-4.5,4.4-3.8,12.2,1,16.1,2.9,2.3,6.6,3.5,10.2,2.2,3.1-1.1,5.6-3.7,6.2-7s0-6.7-2.4-9.3-5.9-3.5-9.2-3.1c-3.5.5-6.5,2.4-8.4,5.4s-1.9,7.3,0,10.4,5.3,5,9,5.2c3.3.2,6.6-1.4,8.9-3.6,5-4.8,4.9-14.2-1.9-17.4-6-2.8-13.5-.6-17,5.1-3.3,5.4-1.4,13.1,4.1,16.2,3.2,1.8,6.8,1.7,10.2.9,2.7-.6,5-1.9,7.2-3.6,5.1-4.1,5.3-11.9.4-16.2-2.7-2.3-6.1-3.5-9.6-3.4-2.7,0-5.6.7-8.1,1.5-2.8,1-5.6,2.5-7.1,5.2-1.9,3.4-1.2,7.6,1,10.7,2,2.7,4.5,4.7,7.7,5.7s6.8.6,9.9-.9c2.4-1.1,4.7-3.3,5.8-5.7,1.3-2.8,1.6-5.8.9-8.8-1.3-5.5-6.3-9.9-12-9.9s-11.4,4.2-12.8,9.9c-1.4,5.7,1.6,11.9,6.9,14.4,2.9,1.4,6.1,1.9,9.2.9,3.3-1,5.8-3.2,7.8-6,3.5-4.9,3.6-12.4-1.3-16.4-4.4-3.6-10.3-4.2-15.5-1.7-4.8,2.3-7.6,7.4-8.1,12.6-.2,2.5.4,5.2,1.7,7.4,1.6,2.8,4.3,4.7,7.3,5.8,5.3,1.9,11.8,0,15.4-4.2,1.7-2.1,3.2-4.5,3.6-7.2.5-3.3.2-6.3-1.3-9.3-2.4-4.9-8.1-8.3-13.5-8.2s-10.7,3.5-13,8.5c-1.4,3-1.8,6.1-1.2,9.4.5,2.9,2.1,5.8,4.2,7.9,3.9,3.9,9.7,5.5,15,4.2,2.5-.6,5.2-2.1,6.9-4.1,2.2-2.6,3.5-5.5,3.8-8.9.6-5.7-2.8-11.6-7.7-14.4s-11.6-2.8-16.3.4c-5.2,3.6-7.7,9.7-6.3,15.9s6.9,10,12.8,10.6c2.6.3,5.5-.4,7.7-1.8,1.5-1,2.9-2.3,3.8-3.9.4-.7.8-1.6.9-2.4.4-1.6.2-2.6,0-4.2-.2-1.4-1.6-2.9-2.8-3.6-1.3-.8-3.2-1.1-4.6-.6s-2.8,1.4-3.6,2.8l-.6,1.4c-.3,1.1-.3,2.1,0,3.2v.3s-.2-1.6-.2-1.6c0,.2,0,.3,0,.5l.2-1.6c0,.3-.1.6-.3,1l.6-1.4c-.2.3-.3.6-.5.9l.9-1.2c-.3.4-.6.6-1,.9l1.2-.9c-.4.3-.8.5-1.2.7l1.4-.6c-.5.2-1.1.4-1.7.5l1.6-.2c-.7,0-1.3,0-2,0l1.6.2c-.8-.1-1.5-.3-2.2-.6l1.4.6c-.7-.3-1.3-.7-2-1.1l1.2.9c-.5-.4-1-.9-1.4-1.4l.9,1.2c-.4-.6-.8-1.1-1-1.8l.6,1.4c-.3-.6-.4-1.3-.5-2l.2,1.6c0-.8,0-1.6,0-2.4l-.2,1.6c.1-.8.3-1.5.6-2.3l-.6,1.4c.3-.7.7-1.4,1.2-2.1l-.9,1.2c.4-.6.9-1.1,1.5-1.5l-1.2.9c.7-.5,1.3-.9,2.1-1.2l-1.4.6c.8-.3,1.5-.5,2.3-.6l-1.6.2c.9-.1,1.8-.1,2.7,0l-1.6-.2c.9.1,1.8.4,2.6.7l-1.4-.6c.7.3,1.4.7,2.1,1.2l-1.2-.9c.6.5,1.2,1.1,1.7,1.7l-.9-1.2c.5.7,1,1.5,1.3,2.3l-.6-1.4c.3.8.5,1.5.6,2.3l-.2-1.6c0,.7,0,1.4,0,2.2l.2-1.6c-.1.8-.3,1.6-.6,2.4l.6-1.4c-.3.7-.7,1.3-1.1,1.9l.9-1.2c-.5.6-1,1.1-1.5,1.6l1.2-.9c-.5.4-1.1.7-1.7,1l1.4-.6c-.7.3-1.4.5-2.1.6l1.6-.2c-.9.1-1.8.1-2.7,0l1.6.2c-.9-.1-1.8-.4-2.6-.7l1.4.6c-.8-.4-1.6-.8-2.3-1.3l1.2.9c-.7-.5-1.2-1.1-1.8-1.8l.9,1.2c-.5-.7-.9-1.4-1.2-2.2l.6,1.4c-.3-.8-.5-1.6-.7-2.4l.2,1.6c0-.7,0-1.3,0-2l-.2,1.6c.1-.8.3-1.6.7-2.4l-.6,1.4c.3-.7.7-1.3,1.2-2l-.9,1.2c.5-.7,1.1-1.3,1.8-1.8l-1.2.9c.6-.5,1.2-.8,2-1.1l-1.4.6c.6-.2,1.3-.4,1.9-.5l-1.6.2c.8-.1,1.5-.1,2.3,0l-1.6-.2c.8.1,1.5.3,2.2.6l-1.4-.6c.8.3,1.5.8,2.2,1.3l-1.2-.9c.7.5,1.3,1.1,1.8,1.8l-.9-1.2c.5.6.8,1.3,1.1,2l-.6-1.4c.2.6.4,1.3.5,1.9l-.2-1.6c0,.7,0,1.3,0,2l.2-1.6c-.1.8-.3,1.6-.7,2.4l.6-1.4c-.3.8-.8,1.5-1.3,2.2l.9-1.2c-.5.6-1,1.1-1.6,1.6l1.2-.9c-.6.5-1.2.9-1.9,1.2l1.4-.6c-.6.3-1.3.4-2,.6l1.6-.2c-.8.1-1.6.1-2.4,0l1.6.2c-.7-.1-1.4-.3-2-.6l1.4.6c-.7-.3-1.2-.6-1.8-1.1l1.2.9c-.4-.3-.8-.7-1.1-1.1l.9,1.2c-.3-.4-.6-.9-.8-1.4l.6,1.4c-.3-.6-.4-1.3-.5-1.9l.2,1.6c0-.7,0-1.3,0-2l-.2,1.6c.1-.8.3-1.6.7-2.4l-.6,1.4c.3-.8.8-1.5,1.3-2.2l-.9,1.2c.5-.6,1-1.1,1.7-1.6l-1.2.9c.6-.4,1.1-.8,1.8-1l-1.4.6c.6-.2,1.2-.4,1.9-.5l-1.6.2c.8-.1,1.6-.1,2.4,0l-1.6-.2c.7.1,1.4.3,2.1.6l-1.4-.6c.5.2,1,.5,1.5.8l-1.2-.9c.4.3.8.7,1.2,1.1l-.9-1.2c.2.3.4.7.6,1.1l-.6-1.4c.2.4.3.9.3,1.3l-.2-1.6c0,.5,0,1.1,0,1.6l.2-1.6c-.1.6-.3,1.2-.5,1.9l.6-1.4c-.4.8-.8,1.6-1.3,2.3l.9-1.2c-.5.7-1.1,1.2-1.8,1.8l1.2-.9c-.5.4-1.1.7-1.7,1l1.4-.6c-.6.2-1.1.4-1.7.5l1.6-.2c-.6,0-1.1,0-1.7,0l1.6.2c-.6-.1-1.1-.2-1.6-.4l1.4.6c-.7-.3-1.3-.7-1.9-1.1l1.2.9c-.5-.4-1-.9-1.4-1.4l.9,1.2c-.3-.5-.6-.9-.8-1.4l.6,1.4c-.2-.5-.4-1.1-.5-1.6l.2,1.6c0-.5,0-1,0-1.5l-.2,1.6c0-.6.2-1.1.4-1.6l-.6,1.4c.3-.6.6-1.1,1-1.6l-.9,1.2c.4-.5.9-.9,1.4-1.4l-1.2.9c.5-.4,1.1-.7,1.7-1l-1.4.6c.6-.2,1.2-.4,1.8-.5l-1.6.2c.6,0,1.1,0,1.7,0l-1.6-.2c.5,0,.9.2,1.3.4l-1.4-.6c.5.2.9.5,1.3.8l-1.2-.9c.5.4.9.8,1.3,1.2l-.9-1.2c.4.5.8,1.1,1,1.7l-.6-1.4c.3.6.4,1.3.5,1.9l-.2-1.6c0,.7,0,1.3,0,2l.2-1.6c0,.5-.2,1-.4,1.5l.6-1.4c-.2.5-.5,1-.9,1.5l.9-1.2c-.3.4-.7.8-1.2,1.1l1.2-.9c-.5.4-1,.7-1.6,1l1.4-.6c-.7.3-1.4.5-2.1.6l1.6-.2c-.6,0-1.3,0-1.9,0l1.6.2c-.7-.1-1.4-.3-2.1-.6l1.4.6c-.7-.3-1.3-.7-1.8-1.1l1.2.9c-.6-.5-1.1-1-1.5-1.6l.9,1.2c-.4-.5-.7-1.1-1-1.7l.6,1.4c-.2-.4-.3-.8-.3-1.2l.2,1.6c0-.2,0-.4,0-.6l-.2,1.6c0-.3.1-.6.2-.9l-.6,1.4c.1-.3.3-.5.4-.7l-.9,1.2c.2-.3.5-.5.8-.8l-1.2.9c.5-.4,1.1-.7,1.7-.9l-1.4.6c1.8-.7,3.9-1.2,5.8-1.5l-1.6.2c1-.1,2.1-.2,3.1,0l-1.6-.2c.7.1,1.3.2,1.9.5l-1.4-.6c.6.2,1.1.5,1.6.9l-1.2-.9c.4.3.8.7,1.1,1.1l-.9-1.2c.2.3.5.7.6,1.1l-.6-1.4c.2.4.3.8.3,1.2l-.2-1.6c0,.4,0,.8,0,1.2l.2-1.6c0,.4-.2.7-.3,1.1l.6-1.4c-.2.3-.3.7-.6,1l.9-1.2c-.4.5-.8.9-1.3,1.3l1.2-.9c-.7.5-1.4.9-2.2,1.2l1.4-.6c-1.2.5-2.5.9-3.9,1.1l1.6-.2c-.8.1-1.5.1-2.3,0l1.6.2c-.5,0-.9-.2-1.4-.4l1.4.6c-.3-.2-.7-.4-1-.6l1.2.9c-.4-.3-.7-.6-1-1l.9,1.2c-.3-.4-.5-.8-.7-1.2l.6,1.4c-.2-.6-.4-1.2-.5-1.8l.2,1.6c0-.5,0-.9,0-1.4l-.2,1.6c0-.5.2-.9.3-1.4l-.6,1.4c.2-.6.5-1.1.9-1.6l-.9,1.2c.3-.4.7-.8,1.1-1.1l-1.2.9c.6-.4,1.1-.8,1.8-1.1l-1.4.6c.7-.3,1.3-.4,2-.6l-1.6.2c.6,0,1.2,0,1.8,0l-1.6-.2c.6,0,1.1.2,1.6.4l-1.4-.6c.3.1.7.3,1,.5l-1.2-.9c.3.2.5.4.7.7l-.9-1.2c.2.3.3.5.5.8l-.6-1.4c.1.4.2.7.3,1.1l-.2-1.6c0,.4,0,.8,0,1.2l.2-1.6c0,.5-.2,1-.4,1.4l.6-1.4c-.2.6-.5,1-.9,1.5l.9-1.2c-.3.4-.7.8-1.1,1.1l1.2-.9c-.5.3-.9.6-1.4.8l1.4-.6c-.5.2-1,.4-1.6.4l1.6-.2c-.5,0-1.1,0-1.6,0l1.6.2c-.3,0-.7-.1-1-.3l1.4.6c-.4-.2-.7-.4-1.1-.6l1.2.9c-.3-.3-.6-.6-.9-.9l.9,1.2c-.2-.3-.5-.7-.6-1.1l.6,1.4c-.2-.4-.3-.8-.3-1.2l.2,1.6c0-.3,0-.6,0-1l-.2,1.6c0-.4.2-.7.3-1l-.6,1.4c.2-.4.4-.7.6-1l-.9,1.2c.3-.3.6-.6,1-.9l-1.2.9c.3-.2.7-.4,1.1-.6l-1.4.6c.5-.2,1.1-.4,1.7-.5l-1.6.2c.5,0,1,0,1.5,0l-1.6-.2c.4,0,.8.2,1.2.3l-1.4-.6c.4.2.7.4,1,.6l-1.2-.9c.2.2.4.4.6.6l-.9-1.2c.2.3.4.6.5.9l-.6-1.4c.1.3.2.6.3,1l-.2-1.6c0,.4,0,.8,0,1.2l.2-1.6c0,.4-.2.8-.3,1.2l.6-1.4c-.1.3-.3.6-.5.9l.9-1.2c-.2.2-.4.4-.6.6l1.2-.9c-.2.2-.5.3-.7.4l1.4-.6c-.3.1-.5.2-.8.2l1.6-.2c-.4,0-.8,0-1.2,0l1.6.2c-.5,0-.9-.2-1.4-.4l1.4.6c-.3-.2-.7-.4-1-.6l1.2.9c-.4-.3-.8-.7-1.1-1.1l.9,1.2c-.3-.4-.5-.8-.7-1.2l.6,1.4c-.2-.5-.3-1-.4-1.5l.2,1.6c0-.4,0-.9,0-1.3l-.2,1.6c0-.4.2-.7.3-1.1l-.6,1.4c.2-.3.3-.6.5-.9l-.9,1.2c.2-.3.5-.5.7-.8l-1.2.9c.4-.3.8-.5,1.3-.7l-1.4.6c.4-.1.8-.3,1.2-.3l-1.6.2c.6,0,1.1,0,1.7,0l-1.6-.2c.4,0,.8.2,1.2.3l-1.4-.6c.3.1.6.3.9.5l-1.2-.9c.3.2.5.4.8.7l-.9-1.2c.2.3.4.6.5.9l-.6-1.4c.1.3.2.6.3,1l-.2-1.6c0,.4,0,.8,0,1.2l.2-1.6c0,.4-.2.8-.3,1.2l.6-1.4c-.2.5-.4.9-.7,1.3l.9-1.2c-.3.3-.5.6-.9.9l1.2-.9c-.3.2-.6.4-.9.5l1.4-.6c-.3.1-.7.2-1,.3l1.6-.2c-.3,0-.5,0-.8,0l1.6.2c-.3,0-.7-.1-1-.3l1.4.6c-.3-.1-.6-.3-.9-.5l1.2.9c-.3-.3-.6-.5-.9-.9l.9,1.2c-.2-.3-.5-.7-.6-1.1l.6,1.4c-.2-.4-.3-.9-.4-1.4l.2,1.6c0-.4,0-.8,0-1.2l-.2,1.6c0-.3.1-.5.2-.8l-.6,1.4c.1-.3.3-.6.5-.9l-.9,1.2c.2-.2.4-.4.6-.6l-1.2.9c.2-.2.5-.3.8-.4l-1.4.6c.3-.1.7-.2,1-.3l-1.6.2c.4,0,.9,0,1.3,0l-1.6-.2c.5,0,.9.2,1.3.3l-1.4-.6c.3.1.7.3,1,.5l-1.2-.9c.3.2.5.5.8.8l-.9-1.2c.2.2.3.5.5.8l-.6-1.4c.2.4.2.7.3,1.1l-.2-1.6c0,.5,0,.9,0,1.4l.2-1.6c0,.5-.2.9-.4,1.3l.6-1.4c-.2.4-.4.8-.7,1.2l.9-1.2c-.2.3-.5.6-.8.8l1.2-.9c-.3.2-.6.4-1,.6l1.4-.6c-.4.1-.8.2-1.2.3l1.6-.2c-.5,0-1,0-1.4,0l1.6.2c-.5,0-.9-.2-1.4-.4l1.4.6c-.5-.2-.8-.4-1.2-.8l1.2.9c-.3-.3-.6-.5-.9-.9l.9,1.2c-.2-.3-.5-.7-.6-1v6.1c0-.2.2-.4.3-.6l-.9,1.2c.2-.2.4-.5.7-.7l-1.2.9c.3-.2.5-.3.8-.5l-1.4.6c.3-.1.6-.2.9-.2l-1.6.2c.2,0,.5,0,.7,0l-1.6-.2c.3,0,.6.1.9.2,1.3.6,3.4,0,4.6-.6s2.4-2.2,2.8-3.6c.3-1.5.3-3.3-.6-4.6s-2.1-2.1-3.6-2.8h0Z"/>
    <path class="cls-16" d="M297.5,192.8c3.3,1.4,6.6,2.8,9.9,4.1.8.2,1.6.3,2.4.1.8,0,1.5-.3,2.2-.7.7-.4,1.3-.9,1.7-1.6.5-.6.9-1.3,1.1-2,.3-1.5.3-3.3-.6-4.6l-.9-1.2c-.8-.7-1.6-1.3-2.7-1.5-2.2-.9-4.4-1.8-6.6-2.8l1.4.6c-.6-.3-1.2-.5-1.8-.8-.7-.4-1.4-.7-2.2-.7-.8-.2-1.6-.1-2.4.1-1.4.4-2.9,1.5-3.6,2.8-.7,1.4-1.1,3.1-.6,4.6l.6,1.4c.5.9,1.2,1.6,2.2,2.1h0Z"/>
    <path class="cls-16" d="M296.9,194.1c4,2,7.8,4.3,11.4,6.8,1.2.9,3.2,1,4.6.6s2.9-1.5,3.6-2.8c.7-1.4,1.1-3.1.6-4.6s-1.4-2.7-2.8-3.6c-3.7-2.5-7.5-4.8-11.4-6.8-1.4-.7-3-1-4.6-.6-1.4.4-2.9,1.5-3.6,2.8-.7,1.4-1.1,3.1-.6,4.6.5,1.4,1.4,2.9,2.8,3.6h0Z"/>
    <path class="cls-7" d="M312.2,205.1c5.3,2.6,10.1,6.3,14,10.8,4.3,4.9,7,10.7,9.5,16.7.7,1.8,3.6,1,2.9-.8-2.6-6.4-5.5-12.4-10-17.7-4.1-4.8-9.2-8.7-14.9-11.5-1.7-.9-3.2,1.7-1.5,2.6h0Z"/>
    <path class="cls-7" d="M289,200.9c6.4,5.1,12,11.1,17,17.5l-1.6-2.1c9,11.7,16.1,24.9,21.8,38.5l-1.1-2.5c5.4,12.8,10.3,26.2,12.2,40l-.4-2.8c.9,7,1,14.2,0,21.2l.4-2.8c-1,7-2.8,13.9-5.6,20.4l1.1-2.5c-1.8,4.2-3.9,8.2-6.3,12-2.9,4.6-1.1,11.8,3.8,14.4,5.2,2.7,11.2,1.2,14.4-3.8,6.1-9.7,10.6-20.8,12.5-32.1,1.2-6.9,1.8-13.9,1.3-20.8-.4-6.3-1.4-12.5-2.8-18.6-2.6-10.7-6.6-21.2-10.9-31.3-4.6-10.8-9.8-21.4-16.3-31.2-6.9-10.4-14.9-20.4-24.7-28.2-2.3-1.8-4.4-3.1-7.4-3.1s-5.7,1.1-7.4,3.1-3.2,4.6-3.1,7.4c.1,2.6,1,5.7,3.1,7.4h0Z"/>
    <path class="cls-7" d="M403.6,417.6c-30.9-2.1-62.7-3.8-95.4-5-32.6-1.2-64.5-1.8-95.4-2,.3-49,56.8-84.3,110.2-78.4,47.5,5.2,86.5,42.4,80.6,85.4h0Z"/>
  </g>
  <g id="Layer_4" data-name="Layer 4">
    <rect class="cls-19" x="192.7" y="270.9" width="14.9" height="78.4" rx="2.6" ry="2.6" transform="translate(-166 356.4) rotate(-64.4)"/>
    <path class="cls-16" d="M291.5,366.8c-52.3-25.5-104.7-51-157-76.5-2.1-1-3.1-3.2-2.2-4.9l.8-1.7c.8-1.7,3.2-2.2,5.2-1.2,52.7,25.7,105.5,51.4,158.2,77.1,2.9,1.4,3.4,4.9,1,6.2l-2,1.1c-1.1.6-2.6.6-3.9,0h0Z"/>
    <circle class="cls-7" cx="294.7" cy="179.2" r="23.9"/>
    <circle class="cls-3" cx="294.7" cy="179.2" r="17.1"/>
    <rect class="cls-17" x="165.5" y="332.1" width="26.4" height="37.5" transform="translate(-214.3 375.2) rotate(-66.5)"/>
    <path class="cls-16" d="M183.8,381.1c-7.9-5.1-15.8-10.2-23.7-15.4-2.8-2.4-5.7-5.1-8.6-8.2-1.5-1.5-2.8-3.1-4.1-4.6l4.6-10.5c2.5-5.7,9.1-8.3,14.8-5.9l30.6,13.3c5.7,2.5,8.3,9.1,5.9,14.8l-4.6,10.5c-2.5,5.7-9.1,8.3-14.8,5.9h0Z"/>
    <path class="cls-1" d="M192.7,365.1c25.8,9.4,51.8,18.4,78.1,26.8"/>
  </g>
  <g id="Layer_7" data-name="Layer 7">
    <path class="cls-15" d="M373.6,415.7c-15.3-.5-30.7-1.1-46-1.6-18.7-1-37.3-2-56-3-19.6-.1-39.2-.3-58.8-.5-.3-6.9.2-16.4,4-26.7,10.5-28.7,37.7-40.3,43.5-42.6,7.8-2.2,19.3-4.6,33.4-4.1,6.8.2,17.7.7,30.3,5.4,7.5,2.8,31.3,11.7,43.3,36.8,6.7,14.1,7,27.7,6.3,36.3h0Z"/>
  </g>
  <g id="Layer_8" data-name="Layer 8">
    <path class="cls-7" d="M152.3,342.5c-4.1,7.5-5,10.5-5,10.5-.5,2-.8,3-.7,4.1.4,4.8,5.4,9,5.4,9,0,0,4.7,3.1,7.1,4,12,4.8,13.9,8.7,24.7,11,1.9.4,6.9,1.4,7.2.6.6-1.5-16.5-5.6-28-18.4-6.6-7.4-9.4-15.6-10.8-20.8h0Z"/>
  </g>
</svg>